HIERARCHY
ROOT Hips
{
	OFFSET 55.234600 -14.073215 91.596703
	CHANNELS 6 Xposition Yposition Zposition Xrotation Yrotation Zrotation
	JOINT spine
	{
		OFFSET 0.000000 -0.393701 6.846367
		CHANNELS 3 Xrotation Yrotation Zrotation
		JOINT spine1
		{
			OFFSET 0.000000 -0.000001 9.496208
			CHANNELS 3 Xrotation Yrotation Zrotation
			JOINT spine2
			{
				OFFSET 0.000000 -0.000002 9.099091
				CHANNELS 3 Xrotation Yrotation Zrotation
				JOINT Neck
				{
					OFFSET 0.000000 -1.113784 23.361198
					CHANNELS 3 Xrotation Yrotation Zrotation
					JOINT Head
					{
						OFFSET 0.000000 -0.000001 7.058014
						CHANNELS 3 Xrotation Yrotation Zrotation
						End Site
						{
							OFFSET 0.000000 5.634188 17.084396
						}
					}
				}
				JOINT RightShoulder
				{
					OFFSET -3.831360 0.533489 9.826309
					CHANNELS 3 Xrotation Yrotation Zrotation
					JOINT RightArm
					{
						OFFSET 0.000000 -0.000002 12.888100
						CHANNELS 3 Xrotation Yrotation Zrotation
						JOINT RightArmRoll
						{
							OFFSET 0.000000 -0.000001 6.506165
							CHANNELS 3 Xrotation Yrotation Zrotation
							JOINT RightForeArm
							{
								OFFSET 0.000000 -0.000003 18.950104
								CHANNELS 3 Xrotation Yrotation Zrotation
								JOINT RightForeArmRoll
								{
									OFFSET 0.000000 -0.000001 7.300919
									CHANNELS 3 Xrotation Yrotation Zrotation
									JOINT RightHand
									{
										OFFSET 0.000000 -0.000003 14.651398
										CHANNELS 3 Xrotation Yrotation Zrotation
										End Site
										{
											OFFSET 0.000000 0.000000 0.100006
										}
									}
								}
							}
						}
					}
				}
				JOINT LeftShoulder
				{
					OFFSET 3.831360 0.533489 9.826309
					CHANNELS 3 Xrotation Yrotation Zrotation
					JOINT LeftArm
					{
						OFFSET 0.000000 -0.000002 12.888100
						CHANNELS 3 Xrotation Yrotation Zrotation
						JOINT LeftArmRoll
						{
							OFFSET 0.000000 -0.000001 6.506165
							CHANNELS 3 Xrotation Yrotation Zrotation
							JOINT LeftForeArm
							{
								OFFSET 0.000000 -0.000003 18.950104
								CHANNELS 3 Xrotation Yrotation Zrotation
								JOINT LeftForeArmRoll
								{
									OFFSET 0.000000 -0.000001 7.300919
									CHANNELS 3 Xrotation Yrotation Zrotation
									JOINT LeftHand
									{
										OFFSET 0.000000 -0.000003 14.651398
										CHANNELS 3 Xrotation Yrotation Zrotation
										End Site
										{
											OFFSET 0.000000 0.000000 0.100006
										}
									}
								}
							}
						}
					}
				}
			}
		}
	}
	JOINT RightUpLeg
	{
		OFFSET -6.068371 0.933478 -1.112778
		CHANNELS 3 Xrotation Yrotation Zrotation
		JOINT RightUpLegRoll
		{
			OFFSET 0.000000 -0.000003 17.179604
			CHANNELS 3 Xrotation Yrotation Zrotation
			JOINT RightLeg
			{
				OFFSET 0.000000 0.000003 -21.274300
				CHANNELS 3 Xrotation Yrotation Zrotation
				JOINT RightLegRoll
				{
					OFFSET 0.000000 -0.000003 21.343903
					CHANNELS 3 Xrotation Yrotation Zrotation
					JOINT RightFoot
					{
						OFFSET 0.000000 -0.000003 17.765198
						CHANNELS 3 Xrotation Yrotation Zrotation
						JOINT RightToeBase
						{
							OFFSET 0.000000 -0.000003 14.850792
							CHANNELS 3 Xrotation Yrotation Zrotation
							End Site
							{
								OFFSET 0.006294 0.829003 7.192139
							}
						}
					}
				}
			}
		}
	}
	JOINT LeftUpLeg
	{
		OFFSET 6.068371 0.933478 -1.112778
		CHANNELS 3 Xrotation Yrotation Zrotation
		JOINT LeftUpLegRoll
		{
			OFFSET 0.000000 -0.000003 17.179703
			CHANNELS 3 Xrotation Yrotation Zrotation
			JOINT LeftLeg
			{
				OFFSET 0.000000 -0.000004 21.274208
				CHANNELS 3 Xrotation Yrotation Zrotation
				JOINT LeftLegRoll
				{
					OFFSET 0.000000 -0.000004 21.541199
					CHANNELS 3 Xrotation Yrotation Zrotation
					JOINT LeftFoot
					{
						OFFSET 0.000000 -0.000003 17.567902
						CHANNELS 3 Xrotation Yrotation Zrotation
						JOINT LeftToeBase
						{
							OFFSET 0.000000 -0.000002 14.850800
							CHANNELS 3 Xrotation Yrotation Zrotation
							End Site
							{
								OFFSET -0.028210 0.829003 7.192139
							}
						}
					}
				}
			}
		}
	}
}
MOTION
Frames: 5
Frame Time: 0.041667
55.284393 -14.362813 91.635391 0.574386 -0.009632 -0.608103 -2.421428 0.008820 -0.001667 -0.835171 0.026693 0.003256 0.809915 0.026697 0.003009 17.454909 -0.069250 -0.215027 1.803502 0.113684 -0.227117 -17.055100 -41.832723 -19.928812 40.747071 -46.622018 78.896191 -0.000003 0.000015 -0.000004 2.394533 3.536468 -0.970239 -0.000004 0.000004 -3.000000 -5.000211 -7.998824 0.000132 -17.132625 39.130512 19.996519 45.772031 36.874088 -87.068595 0.000001 -0.000003 -0.000000 -0.032628 -3.604012 -0.596269 -0.000002 -0.000011 3.077029 -5.000203 7.999072 -0.000102 -4.433000 -176.651027 0.108946 179.999991 -0.000005 -1.005002 174.086892 -2.073921 -0.283745 0.000007 0.000001 0.077674 69.385242 6.897011 2.093086 25.456957 -7.355615 0.000001 -1.052275 176.716555 0.768263 -0.000005 -0.000005 -1.074890 -5.938500 1.844783 0.265022 -0.000003 -0.000000 -0.069631 69.180855 -6.900704 -2.089492 25.456962 7.355613 -0.000000 
55.281292 -14.356512 91.634193 0.574721 -0.009952 -0.607987 -2.422076 0.008803 -0.001660 -0.835146 0.026516 0.002743 0.809939 0.026524 0.002496 17.458413 -0.068349 -0.215808 1.801273 0.113653 -0.227903 -17.054468 -41.834413 -19.927893 40.743827 -46.618452 78.892913 -0.000002 0.000016 -0.000001 2.389960 3.535012 -0.970228 -0.000004 0.000006 -2.999998 -5.000211 -7.998823 0.000133 -17.131380 39.131301 19.994776 45.771386 36.873831 -87.066668 0.000001 -0.000000 0.000000 -0.032621 -3.602790 -0.596132 -0.000003 -0.000011 3.077030 -5.000203 7.999074 -0.000105 -4.433447 -176.649046 0.109602 179.999991 -0.000005 -1.005002 174.083791 -2.073910 -0.283857 0.000007 0.000001 0.077769 69.386942 6.897053 2.093087 25.456957 -7.355614 0.000000 -1.049168 176.717553 0.768486 -0.000005 -0.000004 -1.074900 -5.935720 1.845181 0.264957 -0.000003 -0.000001 -0.069629 69.179994 -6.900660 -2.089536 25.456962 7.355615 -0.000000 
55.286793 -14.361814 91.633698 0.574642 -0.010366 -0.607945 -2.422779 0.008793 -0.001650 -0.834972 0.026238 0.002097 0.810113 0.026251 0.001849 17.461910 -0.067545 -0.216766 1.799164 0.113763 -0.228873 -17.053705 -41.836121 -19.926802 40.740562 -46.613743 78.889552 -0.000004 0.000016 -0.000005 2.383073 3.533450 -0.970220 -0.000004 0.000006 -2.999999 -5.000209 -7.998825 0.000133 -17.130010 39.133186 19.992817 45.769675 36.873131 -87.063827 0.000001 -0.000000 0.000002 -0.032616 -3.601430 -0.595982 -0.000001 -0.000012 3.077018 -5.000204 7.999070 -0.000101 -4.433710 -176.647038 0.110404 179.999991 -0.000005 -1.005003 174.080307 -2.073896 -0.282985 0.000007 0.000001 0.077861 69.388944 6.897039 2.093059 25.456955 -7.355616 0.000001 -1.045081 176.719547 0.768588 -0.000005 -0.000004 -1.074910 -5.931910 1.845741 0.264891 -0.000003 -0.000001 -0.069627 69.178615 -6.900624 -2.089617 25.456962 7.355614 0.000000 
55.289593 -14.372114 91.632988 0.574218 -0.010859 -0.607970 -2.423499 0.008791 -0.001636 -0.834672 0.025872 0.001345 0.810412 0.025891 0.001096 17.465408 -0.066794 -0.217869 1.797184 0.113964 -0.229991 -17.052913 -41.837740 -19.925591 40.737410 -46.608029 78.886356 -0.000002 0.000015 -0.000003 2.374202 3.531804 -0.970211 -0.000004 0.000006 -3.000002 -5.000211 -7.998825 0.000133 -17.128509 39.136096 19.990649 45.767158 36.871776 -87.060166 0.000001 -0.000002 0.000001 -0.032610 -3.599960 -0.595822 -0.000002 -0.000010 3.077022 -5.000203 7.999069 -0.000100 -4.433798 -176.645057 0.111328 179.999991 -0.000005 -1.005003 174.076564 -2.072878 -0.283017 0.000007 0.000001 0.077950 69.391075 6.897066 2.093132 25.456952 -7.355613 0.000000 -1.040152 176.720531 0.768621 -0.000005 -0.000005 -1.074920 -5.927249 1.846433 0.264824 -0.000003 -0.000000 -0.069625 69.176812 -6.900605 -2.089625 25.456960 7.355615 -0.000001 
55.293293 -14.372912 91.632889 0.573508 -0.011416 -0.608056 -2.424250 0.008795 -0.001618 -0.834271 0.025434 0.000513 0.810812 0.025461 0.000264 17.468808 -0.066053 -0.219083 1.795338 0.114209 -0.231221 -17.051940 -41.839181 -19.924147 40.734405 -46.601517 78.883357 -0.000002 0.000014 -0.000005 2.363677 3.530103 -0.970196 -0.000004 0.000005 -3.000004 -5.000211 -7.998823 0.000130 -17.126944 39.139805 19.988351 45.763948 36.870089 -87.055890 0.000002 -0.000001 -0.000001 -0.032604 -3.598410 -0.595654 -0.000002 -0.000010 3.077018 -5.000204 7.999070 -0.000104 -4.433758 -176.643049 0.112341 179.999991 -0.000005 -1.005002 174.072617 -2.072863 -0.283160 0.000007 0.000001 0.078036 69.393397 6.897065 2.093087 25.456955 -7.355614 0.000001 -1.034552 176.722539 0.768563 -0.000005 -0.000005 -1.074930 -5.921899 1.847246 0.264758 -0.000003 -0.000000 -0.069623 69.174605 -6.900632 -2.089468 25.456962 7.355614 -0.000000 
